<svg id="Calque_1" data-name="Calque 1" xmlns="http://www.w3.org/2000/svg" viewBox="0 0 499.9 172.03"><defs><style>.cls-1,.cls-2{fill:#2d4569;}.cls-2{stroke:#2d4569;stroke-miterlimit:10;stroke-width:0.75px;}</style></defs><path class="cls-1" d="M12.72,128.87c-2.86,0-5,.65-6.43,1.94a7.29,7.29,0,0,0-2.12,5.69v32.7h6.27V136.52a2.9,2.9,0,0,1,.62-1.91,2.32,2.32,0,0,1,1.85-.75H16.6v-5ZM4.17,140.41v5H16.6v-5Z"/><path class="cls-1" d="M26.15,128.87v32.71a2.75,2.75,0,0,0,.64,1.94,2.42,2.42,0,0,0,1.86.69h1.88v5H27.9a8.27,8.27,0,0,1-5.91-2,7.42,7.42,0,0,1-2.11-5.63V128.87Z"/><path class="cls-1" d="M44,169.62q-4.68,0-7.29-2.19a7.61,7.61,0,0,1-2.61-6.16V148.12a7.4,7.4,0,0,1,2.61-6.07q2.61-2.15,7.29-2.14t7.22,2.14a7.5,7.5,0,0,1,2.54,6.07v13.23a7.61,7.61,0,0,1-2.54,6.11Q48.73,169.62,44,169.62ZM44,164.49a3.66,3.66,0,0,0,2.62-.88,3.2,3.2,0,0,0,.94-2.48V148.34a3.13,3.13,0,0,0-.94-2.42A3.66,3.66,0,0,0,44,145a3.66,3.66,0,0,0-2.6.88,3.1,3.1,0,0,0-1,2.42v12.79a3.18,3.18,0,0,0,1,2.48A3.66,3.66,0,0,0,44,164.49Z"/><path class="cls-1" d="M64.3,169.2l-7.88-28.79h6.1l4.25,21.28,5-21.28h4.42l5,21.28,4.25-21.28h6.1L83.62,169.2h-5L74,149.34,69.28,169.2Z"/><path class="cls-2" d="M0,116.85,42.58,1.37H59l42.57,115.48H76.09l-25.3-77.2-25.3,77.2ZM23.7,98.66V79H78.45V98.66Z"/><path class="cls-2" d="M105.13,116.85V34.41h24.74v82.44Zm48.25,0v-53q0-5.57-3.12-8.54t-9.06-3q-5.47,0-8.4,2.7c-2,1.8-2.93,4.37-2.93,7.7l-2-14.21A28.59,28.59,0,0,1,137.75,37a25.33,25.33,0,0,1,14.12-4q12.56,0,19.35,7.19T178,60.62v56.23Zm48.24,0v-53q0-5.57-3-8.54c-2-2-4.94-3-8.78-3s-6.69,1-8.73,2.9S178,60,178,63.56l-3.21-14.77a29.65,29.65,0,0,1,10.62-11.68,27.21,27.21,0,0,1,14.58-4q12.56,0,19.45,7.47t6.9,21v55.36Z"/><path class="cls-2" d="M262.66,118q-13.31,0-20.1-6.15t-6.8-18.39q0-12.78,8.54-19.3t25.16-6.51h15.86l1.32,16.12H270.12q-5.85,0-8.78,2.42t-2.92,7.27a6.43,6.43,0,0,0,2.83,5.72c1.89,1.27,4.59,1.9,8.12,1.9,5.1,0,8.93-.71,11.52-2.14a6.92,6.92,0,0,0,3.87-6.43l1.79,9.45a14,14,0,0,1-3.73,8.89,20.58,20.58,0,0,1-8.59,5.36A35.42,35.42,0,0,1,262.66,118Zm22.1-1.19V61.1a8,8,0,0,0-3.31-6.87c-2.2-1.62-5.32-2.43-9.34-2.43a19.3,19.3,0,0,0-8,1.63,14.23,14.23,0,0,0-5.76,4.65l-19.16-6.59a23.94,23.94,0,0,1,11.61-13.58q8.68-4.84,21.62-4.85,16.71,0,25.91,7.27t9.21,20.45v56.07Z"/><path class="cls-2" d="M320,116.85V34.41h24.64v82.44Zm47.58,0V62.69q0-5-3-7.63c-2-1.75-4.91-2.62-8.69-2.62s-6.43.89-8.35,2.66-2.88,4.33-2.88,7.66l-2-14a29.19,29.19,0,0,1,9.53-11.68,24.26,24.26,0,0,1,14.16-4q12.27,0,19,7.15t6.75,20.09v56.55Z"/><path class="cls-2" d="M466,34.41V52.12L429.13,97.79H468.5v19.06H401.56v-18l37.95-45.35H402.88V34.41Z"/><path class="cls-2" d="M475.26,116.85V34.41H499.9v82.44Z"/></svg>