<svg id="Calque_1" data-name="Calque 1" xmlns="http://www.w3.org/2000/svg" viewBox="0 0 363.21 429.02"><defs><style>.cls-1{fill:none;stroke:#2d4569;stroke-miterlimit:10;stroke-width:20px;}.cls-2{fill:#69b75b;}.cls-3{fill:#026666;}</style></defs><path class="cls-1" d="M323.39,151.08c7.47,11,29.73,46.58,29.73,94.44a171.15,171.15,0,0,1-342.29,0c0-48.29,21.51-84.11,28.21-94.16"/><path class="cls-2" d="M70.38,212A117.85,117.85,0,0,1,76,198.79C73.75,204,71.87,208.4,70.38,212Z"/><path class="cls-2" d="M132.31,320.46A129.86,129.86,0,0,0,130.67,334,56.28,56.28,0,0,1,132.31,320.46Z"/><path class="cls-2" d="M216.07,132.81a204.67,204.67,0,0,1-28.57,79.4c-9.27,14.6-19.74,31.68-30.95,51-13.3,22.95-20.71,37.16-24.22,57.11,0,0,0,.09,0,.12a56.85,56.85,0,0,0,11.41,49.8,124.47,124.47,0,0,1-73.42-158s0,0,0,0l.07-.16c1.49-3.61,3.37-8.06,5.62-13.22a.23.23,0,0,0,0-.1c3.34-7.64,7.5-16.8,12.43-27C104.15,139.31,116.79,119,154.3,56.93c6.95-11.51,18.56-30.76,33.2-55.14a199,199,0,0,1,29.82,90.58A194.43,194.43,0,0,1,216.07,132.81Z"/><path class="cls-2" d="M70.31,212.17s0,0,0,0h0A.08.08,0,0,1,70.31,212.17Z"/><path class="cls-2" d="M132.31,320.46A129.86,129.86,0,0,0,130.67,334,56.28,56.28,0,0,1,132.31,320.46Z"/><path class="cls-3" d="M304.58,212A117.85,117.85,0,0,0,299,198.79C301.21,204,303.09,208.4,304.58,212Z"/><path class="cls-3" d="M242.65,320.46A129.86,129.86,0,0,1,244.29,334,56.28,56.28,0,0,0,242.65,320.46Z"/><path class="cls-3" d="M158.89,132.81a204.67,204.67,0,0,0,28.57,79.4c9.27,14.6,19.74,31.68,30.95,51,13.3,22.95,20.71,37.16,24.22,57.11,0,0,0,.09,0,.12a56.85,56.85,0,0,1-11.41,49.8,124.47,124.47,0,0,0,73.42-158s0,0,0,0l-.07-.16c-1.49-3.61-3.37-8.06-5.62-13.22a.23.23,0,0,1,0-.1c-3.34-7.64-7.5-16.8-12.43-27C270.81,139.31,258.17,119,220.66,56.93c-6.95-11.51-18.56-30.76-33.2-55.14a199,199,0,0,0-29.82,90.58A194.43,194.43,0,0,0,158.89,132.81Z"/><path class="cls-3" d="M304.65,212.17s0,0,0,0h0A.08.08,0,0,0,304.65,212.17Z"/><path class="cls-3" d="M242.65,320.46A129.86,129.86,0,0,1,244.29,334,56.28,56.28,0,0,0,242.65,320.46Z"/></svg>